<svg width="54" height="54" viewBox="0 0 54 54" fill="none" xmlns="http://www.w3.org/2000/svg">
<path fill-rule="evenodd" clip-rule="evenodd" d="M14.0625 12.3747C14.0623 10.8709 14.5258 9.40354 15.3898 8.17267C16.2538 6.94181 17.4763 6.00725 18.8907 5.49635C20.3051 4.98545 21.8426 4.92305 23.2938 5.31764C24.7449 5.71224 26.0391 6.54465 27 7.70144C28.1866 6.26284 29.8781 5.33196 31.7284 5.0992C33.5786 4.86644 35.4479 5.34939 36.9539 6.44927C38.4599 7.54915 39.4888 9.18285 39.8301 11.0162C40.1714 12.8496 39.7993 14.7441 38.79 16.3122H40.5C42.141 16.3122 43.7148 16.9641 44.8752 18.1245C46.0356 19.2849 46.6875 20.8587 46.6875 22.4997V26.9997C46.688 27.8604 46.4064 28.6977 45.8859 29.3832C45.3654 30.0687 44.6345 30.5648 43.8052 30.7954C44.1292 34.9039 43.9402 39.0417 43.2427 43.1097C43.0396 44.2917 42.4581 45.3757 41.5856 46.1987C40.7132 47.0216 39.5971 47.5389 38.4053 47.6727L36.3465 47.9022C30.1341 48.5966 23.8637 48.5966 17.6513 47.9022L15.5948 47.6727C14.4029 47.5389 13.2868 47.0216 12.4144 46.1987C11.5419 45.3757 10.9604 44.2917 10.7573 43.1097C10.0574 39.0444 9.86841 34.9076 10.1948 30.7954C9.36548 30.5648 8.63465 30.0687 8.11411 29.3832C7.59357 28.6977 7.312 27.8604 7.3125 26.9997V22.4997C7.3125 20.8587 7.9644 19.2849 9.12478 18.1245C10.2852 16.9641 11.859 16.3122 13.5 16.3122H15.21C14.4586 15.1366 14.0603 13.77 14.0625 12.3747ZM25.3125 12.3747C25.3125 11.3304 24.8977 10.3289 24.1592 9.59046C23.4208 8.85204 22.4193 8.43719 21.375 8.43719C20.3307 8.43719 19.3292 8.85204 18.5908 9.59046C17.8523 10.3289 17.4375 11.3304 17.4375 12.3747C17.4375 13.419 17.8523 14.4205 18.5908 15.1589C19.3292 15.8974 20.3307 16.3122 21.375 16.3122C22.4193 16.3122 23.4208 15.8974 24.1592 15.1589C24.8977 14.4205 25.3125 13.419 25.3125 12.3747ZM32.625 16.3122C33.1421 16.3122 33.6541 16.2103 34.1318 16.0125C34.6095 15.8146 35.0436 15.5246 35.4092 15.1589C35.7749 14.7933 36.0649 14.3592 36.2628 13.8815C36.4607 13.4038 36.5625 12.8918 36.5625 12.3747C36.5625 11.8576 36.4607 11.3456 36.2628 10.8679C36.0649 10.3902 35.7749 9.95609 35.4092 9.59046C35.0436 9.22483 34.6095 8.9348 34.1318 8.73692C33.6541 8.53904 33.1421 8.43719 32.625 8.43719C31.5807 8.43719 30.5792 8.85204 29.8408 9.59046C29.1023 10.3289 28.6875 11.3304 28.6875 12.3747C28.6875 13.419 29.1023 14.4205 29.8408 15.1589C30.5792 15.8974 31.5807 16.3122 32.625 16.3122ZM10.6875 22.4997C10.6875 20.9472 11.9475 19.6872 13.5 19.6872H25.3125V27.5622H11.25C11.1008 27.5622 10.9577 27.5029 10.8523 27.3974C10.7468 27.292 10.6875 27.1489 10.6875 26.9997V22.4997ZM28.6875 30.9372H40.4302C40.7452 34.8072 40.5742 38.7064 39.9172 42.5382C39.8378 42.9993 39.6108 43.4221 39.2704 43.7431C38.9299 44.064 38.4945 44.2658 38.0295 44.3179L35.973 44.5497C33.5505 44.8197 31.122 44.9802 28.6875 45.0312V30.9372ZM28.6875 27.5622H42.75C42.8992 27.5622 43.0423 27.5029 43.1477 27.3974C43.2532 27.292 43.3125 27.1489 43.3125 26.9997V22.4997C43.3125 20.9472 42.0525 19.6872 40.5 19.6872H28.6875V27.5622ZM25.3125 30.9372V45.0312C22.878 44.9803 20.447 44.8196 18.027 44.5497L15.9705 44.3179C15.5059 44.2659 15.0706 44.0645 14.7302 43.744C14.3898 43.4234 14.1626 43.0011 14.0828 42.5404C13.4259 38.7095 13.2536 34.8112 13.5698 30.9372H25.3125Z" fill="#A5B104"/>
</svg>
