<svg width="37" height="45" viewBox="0 0 37 45" fill="none" xmlns="http://www.w3.org/2000/svg">
<path d="M24.1923 8.4375C26.5502 8.4375 28.4615 6.54873 28.4615 4.21875C28.4615 1.88877 26.5502 0 24.1923 0C21.8344 0 19.9231 1.88877 19.9231 4.21875C19.9231 6.54873 21.8344 8.4375 24.1923 8.4375ZM10.1119 27.9026L8.7955 30.9366H2.84615C1.27454 30.9366 0 32.1961 0 33.7491C0 35.3022 1.27454 36.5616 2.84615 36.5616H9.73473C11.4469 36.5616 12.9882 35.5562 13.658 34.0049L14.4398 32.2014L13.4908 31.6477C11.9503 30.7485 10.8172 29.4179 10.1119 27.9026ZM34.1538 19.6866H30.2377L27.9199 15.0064C26.8081 12.7608 24.7669 11.119 22.425 10.5293L16.103 8.67129C13.5859 8.07363 10.9648 8.62295 8.91291 10.1777L5.38457 12.8505C4.13671 13.7953 3.90012 15.5602 4.85803 16.7933C5.81594 18.0264 7.60101 18.2575 8.84798 17.3136L12.3781 14.6408C13.0603 14.1231 13.9293 13.9377 14.6257 14.1012L15.9331 14.4853L12.6013 22.166C11.4789 24.757 12.4848 27.7919 14.9405 29.2245L22.4988 33.634L20.0556 41.3446C19.586 42.8265 20.4212 44.4041 21.9207 44.8682C22.2044 44.9561 22.4908 44.9982 22.7728 44.9982C23.9833 44.9982 25.1057 44.2274 25.4873 43.0251L28.3014 34.1429C28.8271 32.3174 28.0444 30.3565 26.3767 29.3625L20.9299 26.1861L23.7147 19.3061L25.5175 22.9474C26.2291 24.3835 27.734 25.3107 29.3519 25.3107H34.1538C35.7255 25.3107 37 24.0513 37 22.4982C37 20.9452 35.7255 19.6866 34.1538 19.6866Z" fill="#A5B104"/>
</svg>
