<svg width="60" height="60" viewBox="0 0 60 60" fill="none" xmlns="http://www.w3.org/2000/svg">
<path fill-rule="evenodd" clip-rule="evenodd" d="M24.7705 9.2973C27.0655 5.2173 32.9365 5.2173 35.2285 9.2973L51.9685 39.0573C54.2185 43.0593 51.3295 47.9973 46.7425 47.9973H13.2595C8.66955 47.9973 5.78054 43.0593 8.03054 39.0573L24.7705 9.2973ZM32.9995 39.0003C32.9995 39.796 32.6835 40.559 32.1209 41.1216C31.5583 41.6842 30.7952 42.0003 29.9995 42.0003C29.2039 42.0003 28.4408 41.6842 27.8782 41.1216C27.3156 40.559 26.9995 39.796 26.9995 39.0003C26.9995 38.2047 27.3156 37.4416 27.8782 36.879C28.4408 36.3164 29.2039 36.0003 29.9995 36.0003C30.7952 36.0003 31.5583 36.3164 32.1209 36.879C32.6835 37.4416 32.9995 38.2047 32.9995 39.0003ZM29.9995 15.0003C29.2039 15.0003 28.4408 15.3164 27.8782 15.879C27.3156 16.4416 26.9995 17.2047 26.9995 18.0003V27.0003C26.9995 27.796 27.3156 28.559 27.8782 29.1216C28.4408 29.6842 29.2039 30.0003 29.9995 30.0003C30.7952 30.0003 31.5583 29.6842 32.1209 29.1216C32.6835 28.559 32.9995 27.796 32.9995 27.0003V18.0003C32.9995 17.2047 32.6835 16.4416 32.1209 15.879C31.5583 15.3164 30.7952 15.0003 29.9995 15.0003Z" fill="#FFA629"/>
</svg>
