<svg width="234" height="234" viewBox="0 0 234 234" fill="none" xmlns="http://www.w3.org/2000/svg">
<path fill-rule="evenodd" clip-rule="evenodd" d="M117 204.75C128.523 204.75 139.934 202.48 150.58 198.07C161.227 193.661 170.9 187.197 179.049 179.049C187.197 170.9 193.661 161.227 198.07 150.58C202.48 139.934 204.75 128.523 204.75 117C204.75 105.477 202.48 94.0658 198.07 83.4195C193.661 72.7732 187.197 63.0997 179.049 54.9514C170.9 46.803 161.227 40.3394 150.58 35.9296C139.934 31.5197 128.523 29.25 117 29.25C93.7273 29.25 71.4077 38.4951 54.9514 54.9514C38.4951 71.4077 29.25 93.7273 29.25 117C29.25 140.273 38.4951 162.592 54.9514 179.049C71.4077 195.505 93.7273 204.75 117 204.75ZM114.738 152.49L163.488 93.99L148.512 81.51L106.587 131.81L84.8932 110.107L71.1068 123.893L100.357 153.143L107.903 160.69L114.738 152.49Z" fill="#A5B104"/>
</svg>
