<svg width="48" height="48" viewBox="0 0 48 48" fill="none" xmlns="http://www.w3.org/2000/svg">
<path d="M30.5801 20.58L25.0201 26.14C24.6875 26.0496 24.3447 26.0025 24.0001 26C22.9392 26 21.9218 26.4214 21.1717 27.1716C20.4215 27.9217 20.0001 28.9391 20.0001 30C20.0026 30.3446 20.0497 30.6875 20.1401 31.02L18.5801 32.58C18.3926 32.7659 18.2438 32.9871 18.1423 33.2308C18.0408 33.4746 17.9885 33.736 17.9885 34C17.9885 34.264 18.0408 34.5254 18.1423 34.7692C18.2438 35.0129 18.3926 35.2341 18.5801 35.42C18.766 35.6075 18.9872 35.7562 19.2309 35.8578C19.4746 35.9593 19.7361 36.0116 20.0001 36.0116C20.2641 36.0116 20.5255 35.9593 20.7692 35.8578C21.013 35.7562 21.2342 35.6075 21.4201 35.42L22.9801 33.86C23.3126 33.9504 23.6555 33.9975 24.0001 34C25.0609 34 26.0784 33.5786 26.8285 32.8284C27.5787 32.0783 28.0001 31.0609 28.0001 30C27.9975 29.6554 27.9505 29.3125 27.8601 28.98L33.4201 23.42C33.7967 23.0434 34.0083 22.5326 34.0083 22C34.0083 21.4674 33.7967 20.9566 33.4201 20.58C33.0435 20.2034 32.5327 19.9918 32.0001 19.9918C31.4675 19.9918 30.9567 20.2034 30.5801 20.58ZM24.0001 8C21.3736 8 18.7729 8.51732 16.3464 9.52241C13.9199 10.5275 11.7151 12.0007 9.85794 13.8579C6.10721 17.6086 4.00008 22.6957 4.00008 28C3.989 31.9613 5.1664 35.8349 7.38008 39.12C7.67712 39.5603 8.13689 39.8645 8.65824 39.9658C9.17959 40.067 9.71982 39.957 10.1601 39.66C10.6003 39.363 10.9046 38.9032 11.0058 38.3818C11.1071 37.8605 10.9971 37.3203 10.7001 36.88C9.08911 34.4711 8.16264 31.6699 8.01958 28.7754C7.87653 25.881 8.52227 23.0021 9.88785 20.4461C11.2534 17.89 13.2876 15.7529 15.7731 14.2628C18.2586 12.7727 21.1021 11.9856 24.0001 11.9856C26.898 11.9856 29.7416 12.7727 32.2271 14.2628C34.7126 15.7529 36.7467 17.89 38.1123 20.4461C39.4779 23.0021 40.1236 25.881 39.9806 28.7754C39.8375 31.6699 38.911 34.4711 37.3001 36.88C37.1527 37.0979 37.0497 37.3427 36.9971 37.6005C36.9444 37.8582 36.9431 38.1238 36.9933 38.382C37.0435 38.6403 37.1441 38.8861 37.2894 39.1054C37.4347 39.3247 37.6218 39.5131 37.8401 39.66C38.1712 39.8825 38.5612 40.0009 38.9601 40C39.2877 40.0005 39.6104 39.9205 39.8998 39.7671C40.1893 39.6136 40.4366 39.3914 40.6201 39.12C42.8338 35.8349 44.0112 31.9613 44.0001 28C44.0001 22.6957 41.8929 17.6086 38.1422 13.8579C34.3915 10.1071 29.3044 8 24.0001 8Z" fill="#A5B104"/>
</svg>
